<svg width="80" height="37.67" id="a" xmlns="http://www.w3.org/2000/svg" viewBox="0 0 80 37.67"><defs><style>.b{fill:#fff;}</style></defs><path class="b" d="M18.78,17.83h-4.44l-1.37-3.26h-7.36l-1.25,3.26H0L6.68,1.29h4.78l7.36,16.54h-.04ZM9.1,5.23l-2.43,6.41h5.08s-2.66-6.41-2.66-6.41Z"></path><path class="b" d="M34.9,1.29h3.6v16.54h-4.13V7.51l-4.48,5.2h-.64l-4.48-5.2v10.32h-4.13V1.29h3.6l5.31,6.15,5.31-6.15h.04Z"></path><path class="b" d="M48.93,1.29c6.03,0,9.14,3.76,9.14,8.31s-3,8.23-9.6,8.23h-6.83V1.29h7.28ZM45.75,14.79h2.69c4.13,0,5.39-2.81,5.39-5.23s-1.52-5.23-5.42-5.23h-2.66s0,10.47,0,10.47Z"></path><polygon class="b" points="74.8 5.2 66.27 5.2 61.07 0 80 0 80 18.93 74.8 13.73 74.8 5.2"></polygon><polygon class="b" points="66.27 13.73 66.27 6.22 60.92 11.61 60.92 19.08 68.39 19.08 73.74 13.73 66.27 13.73"></polygon><path class="b" d="M60.73,37.67l-1.86-3.87h-5.8l-1.86,3.87h-1.4l5.54-11.57h1.29l5.54,11.57h-1.44ZM53.67,32.51h4.59l-2.31-4.78-2.28,4.78Z"></path><path class="b" d="M63.73,26.06h1.29v11.57h-1.29v-11.57Z"></path><path class="b" d="M2.47,28.37h8.8v-2.31H2.31c-1.29,0-2.31,1.02-2.31,2.31v2.31c0,1.29,1.02,2.31,2.31,2.31h6.79c.08,0,.15.08.15.15v1.97c0,.08-.08.15-.15.15H.3v2.31h8.95c1.29,0,2.31-1.02,2.31-2.31v-2.31c0-1.29-1.02-2.31-2.31-2.31H2.47c-.08,0-.15-.08-.15-.15v-1.97c0-.08.08-.15.15-.15Z"></path><path class="b" d="M41.92,26.06h-6.94c-1.29,0-2.31,1.02-2.31,2.31v6.94c0,1.29,1.02,2.31,2.31,2.31h6.94c1.29,0,2.31-1.02,2.31-2.31v-6.94c0-1.29-1.02-2.31-2.31-2.31ZM41.92,35.16c0,.08-.08.15-.15.15h-6.6c-.08,0-.15-.08-.15-.15v-6.6c0-.08.08-.15.15-.15h6.6c.08,0,.15.08.15.15v6.6Z"></path><polygon class="b" points="30.95 35.32 22.84 35.32 22.84 26.06 20.52 26.06 20.52 37.63 20.52 37.63 30.95 37.63 30.95 35.32"></polygon><rect class="b" x="14.83" y="26.1" width="2.31" height="11.57"></rect></svg>